<?xml version="1.0" standalone="no"?>
<svg xmlns:xlink="http://www.w3.org/1999/xlink" id="wave" style="transform:rotate(180deg); transition: 0.3s" viewBox="0 0 1440 110" version="1.1" xmlns="http://www.w3.org/2000/svg"><defs><linearGradient id="sw-gradient-0" x1="0" x2="0" y1="1" y2="0"><stop stop-color="rgba(255, 249, 234, 1)" offset="0%"/><stop stop-color="rgba(255, 249, 234, 1)" offset="100%"/></linearGradient></defs><path style="transform:translate(0, 0px); opacity:1" fill="url(#sw-gradient-0)" d="M0,44L48,45.8C96,48,192,51,288,44C384,37,480,18,576,20.2C672,22,768,44,864,58.7C960,73,1056,81,1152,69.7C1248,59,1344,29,1440,14.7C1536,0,1632,0,1728,0C1824,0,1920,0,2016,0C2112,0,2208,0,2304,1.8C2400,4,2496,7,2592,7.3C2688,7,2784,4,2880,18.3C2976,33,3072,66,3168,77C3264,88,3360,77,3456,62.3C3552,48,3648,29,3744,20.2C3840,11,3936,11,4032,25.7C4128,40,4224,70,4320,84.3C4416,99,4512,99,4608,89.8C4704,81,4800,62,4896,58.7C4992,55,5088,66,5184,67.8C5280,70,5376,62,5472,66C5568,70,5664,84,5760,84.3C5856,84,5952,70,6048,56.8C6144,44,6240,33,6336,38.5C6432,44,6528,66,6624,78.8C6720,92,6816,95,6864,97.2L6912,99L6912,110L6864,110C6816,110,6720,110,6624,110C6528,110,6432,110,6336,110C6240,110,6144,110,6048,110C5952,110,5856,110,5760,110C5664,110,5568,110,5472,110C5376,110,5280,110,5184,110C5088,110,4992,110,4896,110C4800,110,4704,110,4608,110C4512,110,4416,110,4320,110C4224,110,4128,110,4032,110C3936,110,3840,110,3744,110C3648,110,3552,110,3456,110C3360,110,3264,110,3168,110C3072,110,2976,110,2880,110C2784,110,2688,110,2592,110C2496,110,2400,110,2304,110C2208,110,2112,110,2016,110C1920,110,1824,110,1728,110C1632,110,1536,110,1440,110C1344,110,1248,110,1152,110C1056,110,960,110,864,110C768,110,672,110,576,110C480,110,384,110,288,110C192,110,96,110,48,110L0,110Z"/></svg>